<svg xmlns="http://www.w3.org/2000/svg" viewBox="0 0 512 512" role="img" aria-labelledby="title desc">
  <title id="title">Datos locales y soberania de datos</title>
  <desc id="desc">Una carpeta de proyecto dentro de una computadora, protegida por un escudo, comunica que audio, transcripcion y memos viven en la maquina local.</desc>
  <defs>
    <linearGradient id="paper" x1="96" y1="88" x2="416" y2="432" gradientUnits="userSpaceOnUse">
      <stop offset="0" stop-color="#fffdf7"/>
      <stop offset="1" stop-color="#e9dfc9"/>
    </linearGradient>
    <linearGradient id="blue" x1="128" y1="104" x2="382" y2="414" gradientUnits="userSpaceOnUse">
      <stop offset="0" stop-color="#225f8d"/>
      <stop offset="1" stop-color="#0d3454"/>
    </linearGradient>
    <filter id="shadow" x="-20%" y="-20%" width="140%" height="145%">
      <feDropShadow dx="0" dy="16" stdDeviation="16" flood-color="#0d3454" flood-opacity="0.18"/>
    </filter>
  </defs>
  <rect width="512" height="512" rx="104" fill="#f8f5e9"/>
  <circle cx="398" cy="126" r="58" fill="#dbe8de" opacity="0.9"/>
  <path d="M108 174c0-22 18-40 40-40h216c22 0 40 18 40 40v146H108V174Z" fill="url(#blue)" filter="url(#shadow)"/>
  <path d="M86 320h340l-31 58c-8 16-25 26-43 26H160c-18 0-35-10-43-26l-31-58Z" fill="#12395f"/>
  <path d="M209 350h94l-10 18h-74l-10-18Z" fill="#f8f5e9" opacity="0.82"/>
  <rect x="144" y="170" width="224" height="134" rx="18" fill="url(#paper)"/>
  <path d="M174 218c0-13 10-23 23-23h42l18 22h59c13 0 23 10 23 23v34c0 13-10 23-23 23H197c-13 0-23-10-23-23v-56Z" fill="#c86d3f"/>
  <path d="M174 238h165v36c0 13-10 23-23 23H197c-13 0-23-10-23-23v-36Z" fill="#d9895d"/>
  <path d="M256 154c35 0 65-13 83-29 18 16 48 29 83 29v68c0 67-38 112-83 132-45-20-83-65-83-132v-68Z" fill="#f8f5e9" stroke="#0d3454" stroke-width="16" stroke-linejoin="round"/>
  <path d="M339 163c16 12 37 21 61 25v36c0 50-25 82-61 100-36-18-61-50-61-100v-36c24-4 45-13 61-25Z" fill="#1c8f76"/>
  <path d="M313 239l20 21 43-54" fill="none" stroke="#fffdf7" stroke-width="18" stroke-linecap="round" stroke-linejoin="round"/>
  <path d="M94 126c0-22 18-40 40-40h28c17 0 31 11 37 26h42" fill="none" stroke="#b6c1ce" stroke-width="14" stroke-linecap="round"/>
  <path d="M76 154c-26 0-47 21-47 47 0 22 15 41 36 46" fill="none" stroke="#b6c1ce" stroke-width="14" stroke-linecap="round"/>
  <path d="M60 88l69 69" stroke="#c9233f" stroke-width="16" stroke-linecap="round"/>
</svg>
