<svg xmlns="http://www.w3.org/2000/svg" viewBox="0 0 512 512" role="img" aria-labelledby="title desc">
  <title id="title">Control metodologico humano</title>
  <desc id="desc">Una transcripcion con codigos, memo, forma de onda y lapiz representa el puente entre transcribir y analizar desde el oficio cualitativo.</desc>
  <defs>
    <linearGradient id="paper" x1="118" y1="72" x2="374" y2="434" gradientUnits="userSpaceOnUse">
      <stop offset="0" stop-color="#fffdf7"/>
      <stop offset="1" stop-color="#e9dfc9"/>
    </linearGradient>
    <linearGradient id="blue" x1="151" y1="91" x2="378" y2="420" gradientUnits="userSpaceOnUse">
      <stop offset="0" stop-color="#225f8d"/>
      <stop offset="1" stop-color="#0d3454"/>
    </linearGradient>
    <filter id="shadow" x="-18%" y="-18%" width="136%" height="144%">
      <feDropShadow dx="0" dy="16" stdDeviation="16" flood-color="#0d3454" flood-opacity="0.18"/>
    </filter>
  </defs>
  <rect width="512" height="512" rx="104" fill="#f8f5e9"/>
  <circle cx="112" cy="128" r="54" fill="#dbe8de"/>
  <rect x="126" y="76" width="260" height="360" rx="34" fill="url(#blue)" filter="url(#shadow)"/>
  <rect x="154" y="110" width="204" height="290" rx="22" fill="url(#paper)"/>
  <path d="M184 162h92M184 194h144M184 226h116" stroke="#6e7888" stroke-width="13" stroke-linecap="round"/>
  <path d="M188 279c10 0 10-36 20-36s10 36 20 36 10-36 20-36 10 36 20 36 10-36 20-36 10 36 20 36" fill="none" stroke="#225f8d" stroke-width="12" stroke-linecap="round"/>
  <rect x="181" y="318" width="75" height="32" rx="16" fill="#dbe8de" stroke="#1c8f76" stroke-width="6"/>
  <rect x="270" y="318" width="60" height="32" rx="16" fill="#f5e4d8" stroke="#c86d3f" stroke-width="6"/>
  <path d="M339 104l19 38h-38l19-38Z" fill="#c86d3f"/>
  <path d="M369 266l43 43-98 98-54 12 12-54 97-99Z" fill="#c86d3f" stroke="#0d3454" stroke-width="14" stroke-linejoin="round"/>
  <path d="M381 278l19 19" stroke="#fffdf7" stroke-width="12" stroke-linecap="round"/>
  <path d="M274 364l40 40" stroke="#fffdf7" stroke-width="12" stroke-linecap="round"/>
  <path d="M112 302c-21 8-36 29-36 53 0 31 25 56 56 56h28" fill="none" stroke="#1c8f76" stroke-width="16" stroke-linecap="round"/>
  <path d="M112 354l24 24 50-62" fill="none" stroke="#1c8f76" stroke-width="16" stroke-linecap="round" stroke-linejoin="round"/>
</svg>
