<svg xmlns="http://www.w3.org/2000/svg" viewBox="0 0 512 512" role="img" aria-labelledby="title desc">
  <title id="title">Trabajo sin conexion en campo</title>
  <desc id="desc">Una computadora local con pin de ubicacion, paisaje de campo y senal Wi-Fi tachada representa trabajo cualitativo sin depender de internet.</desc>
  <defs>
    <linearGradient id="screen" x1="122" y1="112" x2="389" y2="368" gradientUnits="userSpaceOnUse">
      <stop offset="0" stop-color="#225f8d"/>
      <stop offset="1" stop-color="#0d3454"/>
    </linearGradient>
    <filter id="shadow" x="-18%" y="-18%" width="136%" height="144%">
      <feDropShadow dx="0" dy="16" stdDeviation="16" flood-color="#0d3454" flood-opacity="0.16"/>
    </filter>
  </defs>
  <rect width="512" height="512" rx="104" fill="#f8f5e9"/>
  <circle cx="118" cy="132" r="58" fill="#dbe8de"/>
  <path d="M112 162c0-25 20-45 45-45h198c25 0 45 20 45 45v150H112V162Z" fill="url(#screen)" filter="url(#shadow)"/>
  <rect x="141" y="150" width="230" height="128" rx="20" fill="#f8f5e9"/>
  <path d="M141 253l68-58 49 42 41-31 72 55v17H141v-25Z" fill="#1c8f76"/>
  <path d="M141 231l45-38 34 29 39-54 76 110H141v-47Z" fill="#dbe8de"/>
  <circle cx="318" cy="185" r="20" fill="#c86d3f"/>
  <path d="M85 312h342l-32 61c-9 16-25 26-43 26H160c-18 0-34-10-43-26l-32-61Z" fill="#12395f"/>
  <path d="M209 344h94l-10 19h-74l-10-19Z" fill="#fffdf7" opacity="0.82"/>
  <path d="M337 99c46 0 84 37 84 83 0 62-84 139-84 139s-84-77-84-139c0-46 38-83 84-83Z" fill="#c86d3f" stroke="#0d3454" stroke-width="14" stroke-linejoin="round"/>
  <circle cx="337" cy="181" r="29" fill="#fffdf7"/>
  <path d="M238 90c-31 0-59 12-80 32M268 125c-23 0-43 9-59 24M296 159c-14 0-27 5-36 15" fill="none" stroke="#b6c1ce" stroke-width="14" stroke-linecap="round"/>
  <path d="M151 91l157 157" stroke="#c9233f" stroke-width="16" stroke-linecap="round"/>
  <path d="M88 414h336" stroke="#0d3454" stroke-width="16" stroke-linecap="round"/>
</svg>
