<svg xmlns="http://www.w3.org/2000/svg" viewBox="0 0 1024 1024" role="img" aria-label="AudioScript Contextual">
  <defs>
    <linearGradient id="background" x1="80" y1="80" x2="944" y2="944" gradientUnits="userSpaceOnUse">
      <stop offset="0" stop-color="#16273f"/>
      <stop offset="0.72" stop-color="#1f3656"/>
      <stop offset="1" stop-color="#123d64"/>
    </linearGradient>
    <linearGradient id="wave" x1="220" y1="320" x2="515" y2="650" gradientUnits="userSpaceOnUse">
      <stop offset="0" stop-color="#a9c4e0"/>
      <stop offset="1" stop-color="#6f9bc4"/>
    </linearGradient>
    <filter id="shadow" x="-20%" y="-20%" width="140%" height="150%">
      <feDropShadow dx="0" dy="30" stdDeviation="34" flood-color="#071524" flood-opacity=".42"/>
    </filter>
  </defs>

  <rect x="64" y="64" width="896" height="896" rx="205" fill="url(#background)" filter="url(#shadow)"/>
  <rect x="66" y="66" width="892" height="892" rx="203" fill="none" stroke="#ffffff" stroke-opacity=".12" stroke-width="5"/>
  <path d="M64 800h896v-42H64z" fill="#c36a3c" opacity=".96"/>

  <g transform="translate(145 300) scale(6.1)">
    <line x1="7" y1="40" x2="110" y2="40" stroke="#eef1f5" stroke-opacity=".32" stroke-width="2.6" stroke-linecap="round"/>
    <rect x="7.5" y="22" width="6" height="18" rx="3" fill="url(#wave)"/>
    <rect x="18" y="8" width="6" height="32" rx="3" fill="url(#wave)"/>
    <rect x="28.5" y="16" width="6" height="24" rx="3" fill="url(#wave)"/>
    <rect x="39" y="2" width="6" height="38" rx="3" fill="#b9d1e8"/>
    <rect x="49.5" y="24" width="6" height="16" rx="3" fill="url(#wave)"/>
    <path d="M59 40q5-15 11-3 4 9 9 1 5-11 10 0 4 8 9-2"
          fill="none" stroke="#d98a5a" stroke-width="5.2" stroke-linecap="round" stroke-linejoin="round"/>
    <circle cx="104" cy="40" r="3.3" fill="#d98a5a"/>
  </g>
</svg>
